<svg width="82" height="82" viewBox="0 0 82 82" fill="none" xmlns="http://www.w3.org/2000/svg">
<rect width="82" height="82" rx="41" fill="#174E64"/>
<path fill-rule="evenodd" clip-rule="evenodd" d="M44.668 33.4688C44.9681 33.1689 45.375 33.0004 45.7992 33.0004C46.2235 33.0004 46.6304 33.1689 46.9304 33.4688L53.3304 39.8688C53.6304 40.1689 53.7989 40.5758 53.7989 41C53.7989 41.4243 53.6304 41.8312 53.3304 42.1312L46.9304 48.5312C46.6287 48.8227 46.2245 48.9839 45.805 48.9803C45.3855 48.9767 44.9842 48.8084 44.6875 48.5117C44.3909 48.2151 44.2226 47.8138 44.2189 47.3943C44.2153 46.9748 44.3766 46.5706 44.668 46.2688L48.3368 42.6H29.7992C29.3749 42.6 28.9679 42.4315 28.6678 42.1314C28.3678 41.8313 28.1992 41.4244 28.1992 41C28.1992 40.5757 28.3678 40.1687 28.6678 39.8687C28.9679 39.5686 29.3749 39.4 29.7992 39.4H48.3368L44.668 35.7312C44.3681 35.4312 44.1996 35.0243 44.1996 34.6C44.1996 34.1758 44.3681 33.7689 44.668 33.4688Z" fill="white"/>
</svg>
