<svg width="34" height="36" viewBox="0 0 34 36" fill="none" xmlns="http://www.w3.org/2000/svg">
<path d="M15.7633 17.6667C20.431 17.6667 24.2148 13.9357 24.2148 9.33333C24.2148 4.73096 20.431 1 15.7633 1C11.0957 1 7.31189 4.73096 7.31189 9.33333C7.31189 13.9357 11.0957 17.6667 15.7633 17.6667Z" stroke="#BD1E1E" stroke-width="1.5"/>
<path d="M22.5249 24.3333H32.6667M24.2152 34.3333H4.38132C3.90192 34.3334 3.42799 34.2329 2.99096 34.0386C2.55394 33.8443 2.16383 33.5606 1.84652 33.2062C1.52921 32.8519 1.29195 32.4351 1.1505 31.9834C1.00905 31.5318 0.966646 31.0556 1.02609 30.5866L1.6853 25.3799C1.83861 24.1703 2.43481 23.0576 3.36179 22.251C4.28877 21.4443 5.48268 20.9994 6.71899 20.9999H7.31229L24.2152 34.3333ZM27.5958 19.3333V29.3333V19.3333Z" stroke="#BD1E1E" stroke-width="1.5" stroke-linecap="round" stroke-linejoin="round"/>
</svg>
