<svg width="34" height="38" viewBox="0 0 34 38" fill="none" xmlns="http://www.w3.org/2000/svg">
<path d="M25.587 9.47917H31.1337C31.4691 9.4795 31.7925 9.60434 32.0412 9.8295C32.2899 10.0547 32.4462 10.3641 32.4797 10.6979L33.3057 18.9583H30.5812L29.9041 12.1875H25.587V16.25C25.587 16.6091 25.4443 16.9536 25.1904 17.2075C24.9364 17.4615 24.592 17.6042 24.2328 17.6042C23.8737 17.6042 23.5292 17.4615 23.2753 17.2075C23.0213 16.9536 22.8787 16.6091 22.8787 16.25V12.1875H12.0453V16.25C12.0453 16.6091 11.9027 16.9536 11.6487 17.2075C11.3947 17.4615 11.0503 17.6042 10.6912 17.6042C10.332 17.6042 9.98758 17.4615 9.73362 17.2075C9.47967 16.9536 9.337 16.6091 9.337 16.25V12.1875H5.0172L2.85054 33.8542H17.462V36.5625H1.35283C1.16369 36.5623 0.976688 36.5225 0.803869 36.4456C0.631051 36.3688 0.476251 36.2566 0.349442 36.1162C0.222632 35.9759 0.126626 35.8106 0.0676097 35.6309C0.00859296 35.4512 -0.012126 35.2611 0.006788 35.0729L2.44429 10.6979C2.47783 10.3641 2.63409 10.0547 2.88277 9.8295C3.13145 9.60434 3.45486 9.4795 3.79033 9.47917H9.337V8.53396C9.337 3.83771 12.9553 0 17.462 0C21.9687 0 25.587 3.83771 25.587 8.53396V9.48188V9.47917ZM22.8787 9.47917V8.53396C22.8787 5.30021 20.4357 2.70833 17.462 2.70833C14.4882 2.70833 12.0453 5.30021 12.0453 8.53396V9.48188H22.8787V9.47917ZM31.4018 29.6292C31.5253 29.4948 31.6748 29.3867 31.8411 29.3115C32.0075 29.2364 32.1873 29.1956 32.3698 29.1917C32.5523 29.1878 32.7337 29.2208 32.9032 29.2888C33.0726 29.3568 33.2265 29.4583 33.3557 29.5873C33.4848 29.7163 33.5866 29.8701 33.6548 30.0394C33.7231 30.2087 33.7564 30.3901 33.7527 30.5726C33.7491 30.7551 33.7085 30.935 33.6336 31.1015C33.5586 31.2679 33.4508 31.4175 33.3166 31.5413L27.8999 36.9579C27.646 37.2118 27.3016 37.3544 26.9425 37.3544C26.5834 37.3544 26.2391 37.2118 25.9851 36.9579L20.5685 31.5413C20.4391 31.4163 20.336 31.2669 20.265 31.1017C20.194 30.9365 20.1567 30.7588 20.1551 30.579C20.1535 30.3992 20.1878 30.2209 20.2559 30.0544C20.324 29.888 20.4245 29.7368 20.5517 29.6097C20.6788 29.4825 20.83 29.382 20.9964 29.3139C21.1629 29.2458 21.3412 29.2115 21.521 29.2131C21.7008 29.2147 21.8785 29.252 22.0437 29.323C22.2089 29.394 22.3583 29.4971 22.4832 29.6265L25.587 32.7329V23.0208C25.587 22.6617 25.7297 22.3172 25.9836 22.0633C26.2376 21.8093 26.582 21.6667 26.9412 21.6667C27.3003 21.6667 27.6447 21.8093 27.8987 22.0633C28.1527 22.3172 28.2953 22.6617 28.2953 23.0208V32.7329L31.4018 29.6265V29.6292Z" fill="#28C2FF"/>
</svg>
