<svg width="30" height="37" viewBox="0 0 30 37" fill="none" xmlns="http://www.w3.org/2000/svg">
<path d="M22.5334 3.60474H26.7885C27.2444 3.60474 27.6817 3.78765 28.0041 4.11323C28.3266 4.43882 28.5077 4.88041 28.5077 5.34086V33.9869C28.5077 34.4473 28.3266 34.8889 28.0041 35.2145C27.6817 35.5401 27.2444 35.723 26.7885 35.723H2.71923C2.26326 35.723 1.82597 35.5401 1.50355 35.2145C1.18113 34.8889 1 34.4473 1 33.9869V5.34086C1 4.88041 1.18113 4.43882 1.50355 4.11323C1.82597 3.78765 2.26326 3.60474 2.71923 3.60474H8.73654V6.20892H20.7712V3.60474H22.5334Z" stroke="#399E5A" stroke-width="1.5" stroke-linejoin="round"/>
<path d="M17.3333 14.0209L10.4564 20.9663H19.056L12.1756 27.9108M8.73718 1H20.7718V6.20837H8.73718V1Z" stroke="#399E5A" stroke-width="1.5" stroke-linecap="round" stroke-linejoin="round"/>
</svg>
